#!OML:ASF F:\VICON\USERDATA\INSTALL\rory3\rory3.ASF
:FULLY-SPECIFIED
:DEGREES
487
root 0.292993 16.1803 4.25975 1.26794 -51.8487 14.8706
lowerback -2.82394 5.57609 6.12735
upperback 3.11953 7.29609 -3.24752
thorax 6.06047 3.95166 -6.17928
lowerneck -7.76849 -0.388089 -6.789
upperneck 51.8256 -0.78898 0.583809
head 23.8195 -1.97404 1.37246
rclavicle 6.24184e-014 1.59028e-014
rhumerus -32.9488 36.1131 -100.212
rradius 57.2561
rwrist -20.9573
rhand -8.17928 -41.0684
rfingers 7.12502
rthumb 17.7363 -70.2795
lclavicle 6.24184e-014 1.59028e-014
lhumerus 10.7567 -55.4898 67.3682
lradius 93.6494
lwrist 38.3523
lhand -12.2382 -22.5697
lfingers 7.12502
lthumb 13.8274 6.95069
rfemur -50.0773 2.87799 6.90835
rtibia 78.6427
rfoot -10.3725 -16.7839
rtoes -27.1544
lfemur -37.4882 -17.3239 -33.1752
ltibia 49.267
lfoot -22.13 0.808027
ltoes 14.4164
488
root 0.289463 16.1793 4.25538 1.32401 -51.8977 14.8112
lowerback -2.91136 5.69723 6.21063
upperback 3.27146 7.45359 -3.32457
thorax 6.32239 4.04747 -6.27161
lowerneck -8.00337 -0.505197 -6.73044
upperneck 51.8559 -1.00633 0.66626
head 23.9755 -2.03158 1.3666
rclavicle -8.90555e-014 2.06736e-014
rhumerus -32.5346 36.1646 -100.228
rradius 56.9039
rwrist -20.8843
rhand -7.98705 -41.0803
rfingers 7.12502
rthumb 17.9213 -70.2746
lclavicle -8.90555e-014 2.06736e-014
lhumerus 10.9139 -55.7556 67.1425
lradius 93.5712
lwrist 38.2839
lhand -12.3833 -22.7921
lfingers 7.12502
lthumb 13.6876 6.73776
rfemur -50.0449 2.93107 6.92771
rtibia 78.6446
rfoot -10.9895 -16.2915
rtoes -26.5186
lfemur -37.5186 -17.365 -33.1053
ltibia 49.3261
lfoot -22.2021 0.934692
ltoes 14.5135
489
root 0.287156 16.1757 4.24734 1.44332 -51.8541 14.6879
lowerback -2.82238 5.75924 6.19348
upperback 3.28593 7.54294 -3.34424
thorax 6.30243 4.09176 -6.27997
lowerneck -7.99948 -0.590874 -6.67413
upperneck 51.9254 -1.18876 0.707861
head 24.0663 -2.08372 1.34371
rclavicle 7.43455e-014 2.8625e-014
rhumerus -32.4723 36.2387 -100.415
rradius 56.7012
rwrist -20.8434
rhand -8.20383 -41.2423
rfingers 7.12502
rthumb 17.7127 -70.4556
lclavicle 7.43455e-014 2.8625e-014
lhumerus 10.8341 -56.2224 67.0762
lradius 93.5951
lwrist 38.4145
lhand -13.4264 -22.5524
lfingers 7.12502
lthumb 12.6822 7.04249
rfemur -50.0604 2.92076 7.00906
rtibia 78.6704
rfoot -11.0724 -16.1961
rtoes -26.2051
lfemur -37.5879 -17.2888 -33.0796
ltibia 49.3692
lfoot -22.2055 1.15776
ltoes 14.2138
490
root 0.286755 16.1691 4.23825 1.51099 -51.6435 14.701
lowerback -2.69382 5.81789 6.04375
upperback 3.26898 7.63898 -3.41457
thorax 6.21573 4.13251 -6.27362
lowerneck -7.98979 -0.706353 -6.47195
upperneck 51.9962 -1.44751 0.717113
head 24.1571 -2.13525 1.25793
rclavicle -4.65156e-014 2.22639e-014
rhumerus -32.4064 36.0031 -100.574
rradius 56.5565
rwrist -20.5901
rhand -8.16919 -41.7272
rfingers 7.12502
rthumb 17.746 -70.9374
lclavicle -4.65156e-014 2.22639e-014
lhumerus 10.9027 -56.7361 66.9166
lradius 93.5638
lwrist 38.5303
lhand -13.0591 -22.5926
lfingers 7.12502
lthumb 13.0362 6.98002
rfemur -50.1535 2.72546 7.02756
rtibia 78.7224
rfoot -10.4327 -16.6172
rtoes -26.9789
lfemur -37.6889 -17.2004 -33.2668
ltibia 49.4006
lfoot -22.1721 1.8037
ltoes 12.2753
491
root 0.287353 16.1666 4.23148 1.41146 -51.4935 14.8249
lowerback -2.74513 5.16251 5.96614
upperback 3.11733 6.73987 -3.01521
thorax 5.86953 3.6558 -5.91605
lowerneck -7.46519 -0.0306821 -7.80323
upperneck 52.2058 0.0572788 0.549494
head 24.0588 -1.89917 1.72197
rclavicle 4.96962e-014 -3.18055e-014
rhumerus -33.5545 38.249 -101.412
rradius 56.3544
rwrist -20.5462
rhand -7.5273 -42.9071
rfingers 7.12502
rthumb 18.3636 -72.0603
lclavicle 4.96962e-014 -3.18055e-014
lhumerus 8.00472 -55.1205 69.2392
lradius 93.5683
lwrist 39.1469
lhand -10.4854 -22.9528
lfingers 7.12502
lthumb 15.5162 6.44467
rfemur -50.1473 2.58423 6.95621
rtibia 78.759
rfoot -10.1377 -16.7761
rtoes -27.5255
lfemur -37.6939 -17.2283 -33.4589
ltibia 49.4302
lfoot -22.1703 2.23099
ltoes 11.1315
492
root 0.287202 16.1629 4.22915 1.3125 -51.4538 14.8306
lowerback -2.70705 5.00791 6.01611
upperback 3.16745 6.52468 -2.88882
thorax 5.85714 3.54818 -5.83544
lowerneck -7.34889 0.128771 -8.20121
upperneck 52.2749 0.475649 0.432652
head 24.0559 -1.84438 1.81445
rclavicle -3.06128e-014 2.06736e-014
rhumerus -33.7963 38.8852 -101.623
rradius 56.108
rwrist -20.4049
rhand -6.99816 -43.6717
rfingers 7.12502
rthumb 18.8726 -72.7762
lclavicle -3.06128e-014 2.06736e-014
lhumerus 6.25143 -53.9746 71.29
lradius 93.0882
lwrist 38.8941
lhand -8.38394 -23.265
lfingers 7.12502
lthumb 17.5394 5.96377
rfemur -50.0382 2.58533 6.95791
rtibia 78.7835
rfoot -10.2922 -16.7628
rtoes -27.2497
lfemur -37.6041 -17.2565 -33.4999
ltibia 49.4569
lfoot -22.1938 2.2696
ltoes 11.2751
493
root 0.287393 16.1572 4.22764 1.43682 -51.4547 14.6531
lowerback -2.55658 5.08999 6.12896
upperback 3.16919 6.63724 -2.89709
thorax 5.80606 3.60802 -5.90767
lowerneck -7.32853 0.100287 -8.1899
upperneck 52.3276 0.370464 0.552027
head 24.114 -1.86869 1.86303
rclavicle 3.65764e-014 -4.77083e-015
rhumerus -33.8224 38.6893 -101.673
rradius 56.0474
rwrist -20.1322
rhand -6.74308 -44.2373
rfingers 7.12502
rthumb 19.1179 -73.3177
lclavicle 3.65764e-014 -4.77083e-015
lhumerus 6.44484 -54.7865 70.7333
lradius 93.1741
lwrist 38.8497
lhand -10.6388 -23.453
lfingers 7.12502
lthumb 15.3684 5.9558
rfemur -50.0305 2.63185 7.09054
rtibia 78.8052
rfoot -10.5765 -16.7851
rtoes -26.4909
lfemur -37.6159 -17.2173 -33.3882
ltibia 49.5049
lfoot -22.2291 2.35328
ltoes 10.8656
494
root 0.28784 16.1534 4.22191 1.51895 -51.53 14.632
lowerback -2.32485 5.10235 5.94813
upperback 3.03214 6.67187 -2.83863
thorax 5.50272 3.60432 -5.76887
lowerneck -7.10719 0.201437 -8.36101
upperneck 52.4752 0.475673 0.701247
head 24.1699 -1.85784 2.00492
rclavicle -6.44062e-014 2.22639e-014
rhumerus -33.8759 38.8756 -101.954
rradius 55.693
rwrist -19.9948
rhand -6.88439 -44.4136
rfingers 7.12502
rthumb 18.982 -73.5073
lclavicle -6.44062e-014 2.22639e-014
lhumerus 5.95116 -55.4151 70.8368
lradius 93.3192
lwrist 38.8535
lhand -13.0463 -23.1121
lfingers 7.12502
lthumb 13.0486 6.45978
rfemur -50.1673 2.70901 7.10785
rtibia 78.8514
rfoot -11.0737 -16.6574
rtoes -25.2623
lfemur -37.7472 -17.1667 -33.3221
ltibia 49.576
lfoot -22.2808 2.52144
ltoes 10.078
495
root 0.287928 16.1513 4.21215 1.57233 -51.6138 14.6946
lowerback -2.51547 5.18725 5.95172
upperback 3.18592 6.77825 -2.91
thorax 5.8015 3.67129 -5.81004
lowerneck -7.21753 0.184502 -8.46371
upperneck 52.4675 0.442187 0.837972
head 24.2151 -1.87438 2.10188
rclavicle 7.59357e-014 -1.43125e-014
rhumerus -32.9764 39.0833 -101.866
rradius 55.0321
rwrist -20.0306
rhand -6.97133 -44.0575
rfingers 7.12502
rthumb 18.8984 -73.1594
lclavicle 7.59357e-014 -1.43125e-014
lhumerus 5.93343 -55.5813 70.8614
lradius 93.3346
lwrist 38.8074
lhand -14.6393 -22.3157
lfingers 7.12502
lthumb 11.5126 7.34813
rfemur -50.3732 2.76986 7.06836
rtibia 78.9224
rfoot -11.662 -16.4405
rtoes -23.6596
lfemur -37.9595 -17.2341 -33.2017
ltibia 49.6789
lfoot -22.3268 2.32023
ltoes 10.5834
496
root 0.290354 16.1482 4.20263 1.68389 -51.5641 14.6806
lowerback -2.47867 5.49144 5.98248
upperback 3.24468 7.19644 -3.10433
thorax 5.94011 3.89194 -5.98604
lowerneck -7.30213 -0.133982 -7.99693
upperneck 52.4139 -0.198212 0.863295
head 24.2525 -1.99801 1.90156
rclavicle -9.54166e-015 9.54166e-015
rhumerus -32.4956 38.2044 -101.636
rradius 54.9925
rwrist -19.9364
rhand -6.62541 -44.2301
rfingers 7.12502
rthumb 19.2311 -73.2993
lclavicle -9.54166e-015 9.54166e-015
lhumerus 6.33545 -56.5003 70.5895
lradius 93.3104
lwrist 38.6932
lhand -15.5298 -22.4622
lfingers 7.12502
lthumb 10.6537 7.24771
rfemur -50.5562 2.69674 7.10718
rtibia 79.0019
rfoot -11.7748 -16.3605
rtoes -23.6649
lfemur -38.194 -17.5447 -32.9182
ltibia 49.8006
lfoot -22.356 1.76949
ltoes 11.5999
497
root 0.295142 16.1418 4.1977 1.79846 -51.3896 14.6191
lowerback -2.32794 6.03089 6.09616
upperback 3.39441 7.94095 -3.45963
thorax 6.20628 4.29064 -6.34498
lowerneck -7.59651 -0.75721 -7.03828
upperneck 52.2842 -1.48861 0.967655
head 24.3425 -2.23763 1.51932
rclavicle -5.80451e-014 3.49861e-014
rhumerus -31.874 36.3802 -101.124
rradius 55.3152
rwrist -19.7473
rhand -6.6039 -44.5619
rfingers 7.12502
rthumb 19.2517 -73.629
lclavicle -5.80451e-014 3.49861e-014
lhumerus 8.23617 -58.3296 68.9651
lradius 93.2673
lwrist 38.6278
lhand -15.7134 -23.2304
lfingers 7.12502
lthumb 10.4766 6.48858
rfemur -50.6128 2.58397 7.11508
rtibia 79.1027
rfoot -12.324 -15.8853
rtoes -22.9462
lfemur -38.3728 -17.9096 -32.714
ltibia 49.9308
lfoot -22.3654 1.63277
ltoes 11.5017
498
root 0.298988 16.1361 4.1957 2.01661 -51.1544 14.4585
lowerback -2.37603 6.27503 6.24919
upperback 3.72665 8.26888 -3.64702
thorax 6.70177 4.49052 -6.56374
lowerneck -8.32492 -1.12606 -6.4919
upperneck 52.1032 -2.165 1.00712
head 24.5152 -2.3454 1.29611
rclavicle -4.49253e-014 3.18055e-014
rhumerus -30.7158 35.8086 -100.624
rradius 55.1775
rwrist -19.7805
rhand -7.01913 -44.9616
rfingers 7.12502
rthumb 18.8524 -74.0681
lclavicle -4.49253e-014 3.18055e-014
lhumerus 10.3565 -59.2925 67.0222
lradius 93.3028
lwrist 38.6936
lhand -16.4145 -23.4797
lfingers 7.12502
lthumb 9.80028 6.27226
rfemur -50.6416 2.37913 7.1889
rtibia 79.1773
rfoot -12.7033 -15.6589
rtoes -21.891
lfemur -38.5369 -18.2104 -32.5873
ltibia 50.062
lfoot -22.3702 1.55125
ltoes 12.5895
499
root 0.301925 16.1286 4.19048 2.20873 -50.8711 14.3194
lowerback -2.34005 6.14884 6.3886
upperback 3.4395 8.09057 -3.54293
thorax 6.34543 4.38678 -6.57278
lowerneck -7.48777 -0.977054 -6.7344
upperneck 52.1679 -1.90794 0.946502
head 24.1893 -2.31347 1.36526
rclavicle -2.74323e-014 4.29375e-014
rhumerus -31.4977 36.1991 -101.228
rradius 54.6655
rwrist -19.6902
rhand -7.4079 -43.5969
rfingers 7.12502
rthumb 18.4785 -72.7393
lclavicle -2.74323e-014 4.29375e-014
lhumerus 8.23162 -59.3418 68.938
lradius 93.3124
lwrist 38.5298
lhand -16.7025 -23.3648
lfingers 7.12502
lthumb 9.52237 6.40007
rfemur -50.7084 2.05459 7.32628
rtibia 79.2431
rfoot -12.297 -16.1145
rtoes -22.7641
lfemur -38.6944 -18.3987 -32.4963
ltibia 50.1797
lfoot -22.3826 1.26107
ltoes 13.8744
500
root 0.304161 16.1192 4.18037 2.27478 -50.7071 14.314
lowerback -2.16669 6.13958 6.33589
upperback 3.32191 8.0898 -3.54936
thorax 6.1129 4.37462 -6.57603
lowerneck -7.31626 -0.997738 -6.72997
upperneck 52.2901 -1.96981 0.942384
head 24.2564 -2.34012 1.35116
rclavicle -6.2816e-014 -9.54166e-015
rhumerus -31.7612 36.1622 -101.508
rradius 54.4768
rwrist -19.4988
rhand -7.46478 -43.739
rfingers 7.12502
rthumb 18.4238 -72.8866
lclavicle -6.2816e-014 -9.54166e-015
lhumerus 7.149 -59.43 69.9551
lradius 93.2176
lwrist 38.3178
lhand -16.2983 -23.4021
lfingers 7.12502
lthumb 9.91239 6.34458
rfemur -50.8203 1.90381 7.37349
rtibia 79.3305
rfoot -12.1412 -16.3497
rtoes -23.3431
lfemur -38.8659 -18.3996 -32.4701
ltibia 50.2882
lfoot -22.4044 1.06
ltoes 13.9887
501
root 0.303164 16.1129 4.17153 2.17776 -50.8122 14.5136
lowerback -2.05734 6.21318 6.08095
upperback 3.30621 8.20683 -3.60058
thorax 6.02272 4.42039 -6.48847
lowerneck -7.40541 -1.0352 -6.72065
upperneck 52.3721 -2.05706 0.99881
head 24.4016 -2.36652 1.3654
rclavicle -6.75868e-015 -1.43125e-014
rhumerus -31.6415 36.2255 -101.643
rradius 54.2759
rwrist -19.3304
rhand -7.6735 -43.4739
rfingers 7.12502
rthumb 18.223 -72.6403
lclavicle -6.75868e-015 -1.43125e-014
lhumerus 6.87851 -59.8368 70.0562
lradius 93.3194
lwrist 38.445
lhand -16.4284 -23.8122
lfingers 7.12502
lthumb 9.7869 5.94037
rfemur -50.9784 1.95286 7.26846
rtibia 79.4068
rfoot -12.0346 -16.422
rtoes -23.5928
lfemur -38.9946 -18.277 -32.566
ltibia 50.376
lfoot -22.4596 0.977603
ltoes 14.2228
